<svg height="512" viewBox="0 0 192 192" width="512" xmlns="http://www.w3.org/2000/svg"><path d="m127.786 101.188c-2.531-1-8.708-2.443-15.786 3.224-7.078-5.666-13.256-4.226-15.786-3.224a14.167 14.167 0 0 0 -8.735 13.161c0 17.66 21.8 28.764 22.732 29.229a4 4 0 0 0 3.578 0c.928-.465 22.732-11.569 22.732-29.229a14.167 14.167 0 0 0 -8.735-13.161z"/><path d="m184 48h-176a8 8 0 0 0 -8 8v128a8 8 0 0 0 8 8h176a8 8 0 0 0 8-8v-128a8 8 0 0 0 -8-8zm-160 24h16v16h-16zm32 96h-32v-16h32zm56 0a48 48 0 1 1 48-48 48.054 48.054 0 0 1 -48 48z"/><path d="m167.761 22.06a8 8 0 0 0 -7.761-6.06h-40a8 8 0 0 0 -7.761 6.06l-4.485 17.94h64.492z"/><path d="m48 24h-16a16.019 16.019 0 0 0 -16 16h48a16.019 16.019 0 0 0 -16-16z"/></svg>