<svg id="Capa_1" enable-background="new 0 0 510.229 510.229" height="512" viewBox="0 0 510.229 510.229" width="512" xmlns="http://www.w3.org/2000/svg"><g><path d="m322.289 13.759c-17.431-17.433-46.972-19.482-67.175.707-20.182-20.168-49.728-18.155-67.175-.707-18.369 18.369-18.37 48.099 0 66.468l56.568 56.568c5.857 5.858 15.355 5.859 21.213 0l56.568-56.568c18.37-18.369 18.371-48.099.001-66.468z"/><path d="m65.478 306.907c6.021 25.609 24.652 47.1 49.956 56.274l-16.808 106.123-40.495-6.414c-8.178-1.298-15.866 4.287-17.162 12.469s4.286 15.866 12.469 17.162c72.609 11.5 111.157 17.708 112.986 17.708 7.249 0 13.627-5.268 14.797-12.655 1.296-8.183-4.286-15.866-12.469-17.162l-40.495-6.414 16.804-106.1c36.242-1.155 69.195-27.758 75.348-66.61l6.064-38.288z"/><path d="m231.621 230.5 6.309-39.834c1.296-8.183-4.286-15.866-12.469-17.162l-126.424-20.024c-8.179-1.297-15.866 4.286-17.162 12.469l-17.446 110.148z"/><path d="m278.608 230.5 167.192 45.597-17.447-110.148c-1.297-8.183-8.98-13.765-17.162-12.469l-126.424 20.024c-8.183 1.296-13.765 8.979-12.469 17.162z"/><path d="m452.098 462.89-40.495 6.414-16.808-106.123c25.304-9.173 43.935-30.665 49.956-56.274l-160.996-43.907 6.064 38.287c6.15 38.832 39.085 65.455 75.348 66.61l16.804 106.1-40.495 6.414c-8.183 1.296-13.765 8.979-12.469 17.162 1.285 8.113 8.908 13.772 17.162 12.469 57.847-9.162-73.759 11.682 110.621-17.521 8.183-1.296 13.765-8.98 12.469-17.162-1.295-8.183-8.981-13.759-17.161-12.469z"/></g></svg>